<?xml version="1.0" standalone="no"?>
<!DOCTYPE svg PUBLIC "-//W3C//DTD SVG 20010904//EN"
 "http://www.w3.org/TR/2001/REC-SVG-20010904/DTD/svg10.dtd">
<svg version="1.0" xmlns="http://www.w3.org/2000/svg"
 width="200.000000pt" height="200.000000pt" viewBox="0 0 200.000000 200.000000"
 preserveAspectRatio="xMidYMid meet">
<metadata>
Created by potrace 1.11, written by Peter Selinger 2001-2013
</metadata>
<g transform="translate(0.000000,200.000000) scale(0.100000,-0.100000)"
fill="#000000" stroke="none">
<path d="M1255 1734 c-132 -90 -245 -166 -252 -170 -10 -5 -376 231 -462 297
-13 10 -27 17 -31 14 -4 -2 -6 -78 -5 -167 2 -90 3 -199 4 -243 l1 -80 55 -35
c30 -19 55 -37 55 -40 0 -7 -85 -60 -96 -60 -6 0 -9 -40 -8 -92 1 -51 3 -161
3 -244 l1 -151 62 -41 61 -40 -48 -34 c-26 -18 -53 -37 -61 -43 -10 -8 -14
-65 -16 -253 -2 -133 1 -242 5 -242 5 0 116 73 247 161 l239 162 225 -152
c124 -83 231 -154 239 -156 10 -4 12 23 10 132 -1 76 -2 186 -3 245 l0 108
-50 32 c-27 18 -50 35 -50 38 0 3 23 20 50 38 l50 32 1 93 c0 50 2 159 3 240
l2 149 -31 15 c-16 8 -45 27 -63 40 l-34 25 66 44 66 44 1 53 c5 307 7 447 5
446 0 0 -109 -74 -241 -165z m-207 -711 l53 -36 -46 -30 -45 -30 -56 37 -55
37 43 29 c24 16 45 30 48 30 3 0 29 -16 58 -37z"/>
</g>
</svg>
